<svg id="magicoon-Light" xmlns="http://www.w3.org/2000/svg" viewBox="0 0 24 24"><defs><style>.cls-1{fill:#41416e;}</style></defs><title>comment</title><g id="comment-Light"><path id="comment-Light-2" data-name="comment-Light" class="cls-1" d="M17,3.5H7A4.5,4.5,0,0,0,2.5,8V21a.5.5,0,0,0,.309.462A.493.493,0,0,0,3,21.5a.5.5,0,0,0,.354-.147l2.414-2.414A1.491,1.491,0,0,1,6.829,18.5H17A4.505,4.505,0,0,0,21.5,14V8A4.5,4.5,0,0,0,17,3.5ZM20.5,14A3.5,3.5,0,0,1,17,17.5H6.829a2.484,2.484,0,0,0-1.768.732L3.5,19.793V8A3.5,3.5,0,0,1,7,4.5H17A3.5,3.5,0,0,1,20.5,8Z"/></g></svg>