<?xml version="1.0" ?><svg style="enable-background:new 0 0 48 48;" version="1.1" viewBox="0 0 48 48" xml:space="preserve" xmlns="http://www.w3.org/2000/svg" xmlns:xlink="http://www.w3.org/1999/xlink"><g id="Padding__x26__Artboard"/><g id="Icons"><rect height="4.77148" style="fill:none;" width="5.59961" x="21.27124" y="20.95117"/><path d="M34.49194,25.72266h-1.14941h-3.40332v-4.77148h3.40332h1.14941   c0.8457,0,1.5332-0.68848,1.5332-1.53418s-0.6875-1.53418-1.5332-1.53418h-4.55273v-0.0155v-3.21008v-1.34265   c0-0.8457-0.68848-1.5332-1.53418-1.5332s-1.53418,0.6875-1.53418,1.5332v1.34265v3.21008v0.01648h-5.59961v-0.01648v-3.21008   v-1.34265c0-0.8457-0.68848-1.5332-1.53418-1.5332s-1.53418,0.6875-1.53418,1.5332v1.34265v3.21008v0.0155h-4.55273   c-0.8457,0-1.5332,0.68848-1.5332,1.53418s0.6875,1.53418,1.5332,1.53418h1.00732h3.54541v4.77148h-3.54541h-1.00732   c-0.8457,0-1.5332,0.68848-1.5332,1.53418s0.6875,1.53418,1.5332,1.53418h4.55273v4.55176c0,0.8457,0.68848,1.5332,1.53418,1.5332   s1.53418-0.6875,1.53418-1.5332v-4.55273h5.59961v4.55273c0,0.8457,0.68848,1.5332,1.53418,1.5332s1.53418-0.6875,1.53418-1.5332   v-4.55176h4.55273c0.8457,0,1.5332-0.68848,1.5332-1.53418S35.33765,25.72266,34.49194,25.72266z M26.87085,25.72266h-5.59961   v-4.77148h5.59961V25.72266z" style="fill:#303030;"/></g></svg>