<?xml version="1.0" encoding="UTF-8" standalone="no"?>
<svg xmlns:dc="http://purl.org/dc/elements/1.1/" xmlns:cc="http://creativecommons.org/ns#" xmlns:rdf="http://www.w3.org/1999/02/22-rdf-syntax-ns#" xmlns:svg="http://www.w3.org/2000/svg" xmlns="http://www.w3.org/2000/svg" xmlns:sodipodi="http://sodipodi.sourceforge.net/DTD/sodipodi-0.dtd" xmlns:inkscape="http://www.inkscape.org/namespaces/inkscape" width="2048.0701" height="512" viewBox="0 0 541.88519 135.46667" version="1.1" id="svg8" inkscape:version="1.0.2-2 (e86c870879, 2021-01-15)" sodipodi:docname="logo_fa_full.svg">
  <defs id="defs2"/>
  <sodipodi:namedview id="base" pagecolor="#ffffff" bordercolor="#666666" borderopacity="1.0" inkscape:pageopacity="0.0" inkscape:pageshadow="2" inkscape:zoom="0.49497475" inkscape:cx="814.83881" inkscape:cy="203.68104" inkscape:document-units="mm" inkscape:current-layer="g874" inkscape:document-rotation="0" showgrid="false" units="px" inkscape:window-width="1920" inkscape:window-height="1017" inkscape:window-x="-8" inkscape:window-y="-8" inkscape:window-maximized="1"/>
  <metadata id="metadata5">
    <rdf:RDF>
      <cc:Work rdf:about="">
        <dc:format>image/svg+xml</dc:format>
        <dc:type rdf:resource="http://purl.org/dc/dcmitype/StillImage"/>
        <dc:title/>
      </cc:Work>
    </rdf:RDF>
  </metadata>
  <g inkscape:label="Layer 1" inkscape:groupmode="layer" id="layer1">
    <g id="g874" transform="matrix(0.87528024,0,0,0.87528024,142.16239,-142.67779)">
      <g id="g922" transform="matrix(1.2859823,0,0,1.2859823,441.12016,108.0747)">
        <path id="path3909" style="fill:#000000;fill-opacity:1;fill-rule:nonzero;stroke:none;stroke-width:0.352776" d="m -469.32174,42.717091 v 17.193166 17.193192 17.192633 17.193198 h 17.19318 V 94.296082 77.103449 59.910257 h 17.19316 17.19266 V 42.717091 h -17.19266 -17.19316 z m 51.57952,0 v 17.193166 h 17.19265 V 42.717091 Z m 17.19834,0 v 17.193166 h 17.19264 17.19318 17.19264 V 42.717091 h -17.19264 -17.19318 z m 51.57898,0 v 17.193166 h 17.19318 17.19265 17.19317 17.19317 17.19318 17.19264 V 42.717091 h -17.19264 -17.19318 -17.19317 -17.19317 -17.19265 z m 103.16316,0 v 17.193166 h 17.19316 V 42.717091 Z m 17.19369,0 v 17.193166 h 17.19265 17.19315 17.19267 V 42.717091 h -17.19267 -17.19315 z m 51.579,0 v 17.193166 h 17.19264 v 17.193192 17.192633 17.193198 h 17.19318 V 94.296082 77.103449 59.910257 42.717091 h -17.19318 z M -348.9649,77.103449 v 17.192633 h 17.19318 17.19265 V 77.103449 h -17.19265 z m 51.579,0 v 17.192633 h 17.19317 V 77.103449 Z m 34.38583,0 v 17.192633 17.193198 h 17.19316 V 94.296082 77.103449 Z m 34.39202,0 v 17.192633 h 17.19265 V 77.103449 Z m 34.3858,0 v 17.192633 h 17.19267 V 77.103449 Z m -240.71367,17.192633 v 17.193198 h 17.19318 V 94.296082 Z m 68.77786,0 v 17.193198 h 17.19264 V 94.296082 Z m -103.16368,17.193698 v 17.19266 17.19263 h 17.19318 v -17.19263 -17.19266 z m 34.38582,0 v 17.19266 h 17.19318 v -17.19266 z m 17.1937,0 v 17.19266 h 17.19265 v -17.19266 z m 17.19834,0 v 17.19266 h 17.19264 17.19318 17.19264 v -17.19266 h -17.19264 -17.19318 z m 51.57898,0 v 17.19266 h 17.19318 17.19265 17.19317 17.19317 v -17.19266 h -17.19317 -17.19317 -17.19265 z m 85.96483,0 v 17.19266 h 17.19316 v -17.19266 z m 17.19833,0 v 17.19266 h 17.19316 v -17.19266 z m 17.19369,0 v 17.19266 h 17.19265 17.19315 17.19267 v -17.19266 h -17.19267 -17.19315 z m 68.77164,0 v 17.19266 17.19263 h 17.19318 v -17.19263 -17.19266 z m -309.48533,34.38583 v 17.19265 h 17.19318 17.19316 17.19266 v -17.19265 h -17.19266 -17.19316 z m 51.57952,0 v 17.19265 h 17.19265 v -17.19265 z m 17.19834,0 v 17.19265 h 17.19264 17.19318 17.19264 v -17.19265 h -17.19264 -17.19318 z m 51.57898,0 v 17.19265 h 17.19318 17.19265 17.19317 17.19317 17.19318 17.19264 v -17.19265 h -17.19264 -17.19318 -17.19317 -17.19317 -17.19265 z m 103.16316,0 v 17.19265 h 17.19316 v -17.19265 z m 17.19369,0 v 17.19265 h 17.19265 17.19315 17.19267 v -17.19265 h -17.19267 -17.19315 z m 51.579,0 v 17.19265 h 17.19264 17.19318 v -17.19265 h -17.19318 z"/>
        <path id="path4051" style="fill:#000000;fill-opacity:1;fill-rule:nonzero;stroke:none;stroke-width:0.352776" d="m -125.45007,42.71709 v 17.193166 17.193192 17.192633 h 17.19263 V 77.103448 59.910256 42.71709 Z m 17.19316,0 v 17.193166 h 17.192666 17.19316 17.193166 17.192667 V 42.71709 h -17.192667 -17.193166 -17.19316 z m 68.777349,0 v 17.193166 h 17.193157 V 77.103448 94.296081 H -5.0937368 V 77.103448 59.910256 42.71709 H -22.286404 Z m -51.584683,34.386358 v 17.192633 h 17.19316 V 77.103448 Z m 34.386326,0 v 17.192633 h 17.192667 V 77.103448 Z m 51.5846801,0 V 94.296081 H 12.099429 V 77.103448 Z M -125.45007,111.48978 v 17.19266 17.19263 h 17.19263 v -17.19263 -17.19266 z m 34.385826,0 v 17.19266 h 17.19316 17.193166 17.192667 v -17.19266 h -17.192667 -17.193166 z m 68.77784,0 v 17.19266 17.19263 h 17.1926672 v -17.19263 -17.19266 z m -103.163666,34.38583 v 17.19265 h 17.19263 v -17.19265 z m 17.19316,0 v 17.19265 h 17.192666 17.19316 17.193166 17.192667 v -17.19265 h -17.192667 -17.193166 -17.19316 z m 68.777349,0 v 17.19265 h 17.193157 17.1926672 V 145.87561 H -22.286404 Z"/>
      </g>
    </g>
  </g>
</svg>