<svg xmlns="http://www.w3.org/2000/svg" width="48" height="48" viewBox="0 0 48 48">
  <g id="08-Location/Notification" fill="none" fill-rule="evenodd">
    <path id="Notification" fill="#292F48" fill-rule="nonzero" d="M36.3850187,17.9704298 C36.5748954,11.5520286 31.5256787,6.194961 25.1072776,6.00508427 C24.9927082,6.00169494 24.8780949,6 24.7634754,6 L23.0369691,6 C16.6681449,6 11.5051927,11.1629522 11.5051927,17.5317764 C11.5051927,17.6754343 11.5078771,17.8190796 11.5132446,17.9626371 L11.9102557,28.5810279 C11.9769783,30.3655771 11.3591352,32.108152 10.1831803,33.4521005 L7.65495976,36.3414954 C7.29127771,36.757132 7.33339521,37.3888946 7.74903185,37.7525767 C7.93132334,37.9120818 8.16531331,38 8.40753645,38 L39.5924635,38 C40.1447483,38 40.5924635,37.5522847 40.5924635,37 C40.5924635,36.7577769 40.5045453,36.5237869 40.3450402,36.3414954 L37.7990138,33.4317508 C36.635473,32.10199 36.0178627,30.3813981 36.0701117,28.6152269 L36.3850187,17.9704298 Z M39.3041672,32.1147416 L41.8501936,35.0244862 C42.3287088,35.5713607 42.5924635,36.2733306 42.5924635,37 C42.5924635,38.6568542 41.2493178,40 39.5924635,40 L8.40753645,40 C7.68086702,40 6.97889711,39.7362453 6.43202263,39.2577301 C5.18511273,38.1666839 5.05876021,36.2713961 6.14980637,35.0244862 L8.67802688,32.1350913 C9.51799471,31.1751281 9.95931117,29.9304317 9.91165222,28.6557537 L9.51464108,18.0373629 C9.5083427,17.8689076 9.50519269,17.7003494 9.50519269,17.5317764 C9.50519269,10.0583827 15.5635754,4 23.0369691,4 L24.7634754,4 C24.8978117,4 25.0321406,4.0019865 25.1664181,4.00595886 C32.6889057,4.22849798 38.6066832,10.5070827 38.3841441,18.0295702 L38.0692371,28.6743674 C38.0319164,29.9359183 38.4730666,31.1649125 39.3041672,32.1147416 Z M18.5031785,42.4083382 C18.2813225,41.902573 18.5114764,41.3127196 19.0172415,41.0908636 C19.5230066,40.8690077 20.1128601,41.0991615 20.3347161,41.6049267 C20.9678125,43.0481968 22.3965822,44 24,44 C25.5986748,44 27.0239911,43.0538489 27.6599701,41.6169861 C27.8835031,41.1119599 28.4741169,40.8837645 28.9791431,41.1072974 C29.4841694,41.3308303 29.7123648,41.9214441 29.4888319,42.4264704 C28.5353138,44.5807465 26.3972991,46 24,46 C21.5955674,46 19.4524049,44.57229 18.5031785,42.4083382 Z M11,30 L33.2426407,30 C34.575974,30 34.575974,32 33.2426407,32 L11,32 C9.66666667,32 9.66666667,30 11,30 Z"/>
  </g>
</svg>
